<svg width="98" height="96" xmlns="http://www.w3.org/2000/svg" xmlns:xlink="http://www.w3.org/1999/xlink" xml:space="preserve" overflow="hidden"><defs><clipPath id="clip0"><rect x="998" y="848" width="98" height="96"/></clipPath><clipPath id="clip1"><rect x="999" y="848" width="96" height="96"/></clipPath><clipPath id="clip2"><rect x="999" y="848" width="96" height="96"/></clipPath><clipPath id="clip3"><rect x="999" y="848" width="96" height="96"/></clipPath></defs><g clip-path="url(#clip0)" transform="translate(-998 -848)"><g clip-path="url(#clip1)"><g clip-path="url(#clip2)"><g clip-path="url(#clip3)"><path d="M1083 917.7 1086.7 918.4 1087 916.8C1087.4 914.6 1086 912.5 1083.8 912.1L1078 911.1 1074.8 906.4 1085 852 1078.9 852 1068.9 905.2 1064.2 908.4 1058.4 907.3C1056.2 906.9 1054.1 908.3 1053.7 910.5L1053.4 912.1 1058.2 913C1058 917.6 1056.3 927.4 1047.5 938.8L1053.1 938.8C1053.1 938.8 1056.4 932.4 1058.7 931.8 1060.8 931.3 1055.7 936.7 1057.3 938.8L1062.9 938.8C1064.8 938.8 1067.8 930.6 1069.9 931.8 1071.4 932.7 1067.4 938.2 1069.9 938.8L1074.1 938.8C1077.4 938.3 1076.5 930 1078.8 928.4 1080.3 927.3 1079.7 938.8 1079.7 938.8L1086.7 938.8C1083.3 930.5 1082.9 922 1083 917.7Z" fill="#CC0000" fill-rule="nonzero" fill-opacity="1"/><path d="M1050.4 907C1050.4 907 1050.5 906.3 1050.5 906 1050.5 900.5 1040.1 898 1030.5 898 1020.9 898 1010.5 900.5 1010.5 906 1010.5 906.3 1010.6 907 1010.6 907.1L1011.3 910.3 1010.7 907.5C1006.3 915.2 1005.5 922.7 1009.6 927 1011.1 928.6 1013.2 929.5 1015.6 929.9 1016.2 930 1016.9 930 1017.5 930 1024.1 930 1032.6 925.9 1039.6 919.3 1039.8 919.1 1040 918.9 1040.2 918.7 1040.2 918.7 1040.2 918.7 1040.2 918.7 1040.7 918.2 1041.2 917.7 1041.7 917.2 1041.8 917.2 1042 917.3 1042.1 917.3 1043.2 917.3 1044.1 916.4 1044.1 915.3 1044.1 914.2 1043.2 913.3 1042.1 913.3 1041 913.3 1040.1 914.2 1040.1 915.3 1040.1 915.5 1040.1 915.7 1040.2 915.9 1039.7 916.4 1039.2 916.9 1038.7 917.4 1038.3 916.8 1038.1 916.1 1038.1 915.3 1038.1 913.1 1039.9 911.3 1042.1 911.3 1044.3 911.3 1046.1 913.1 1046.1 915.3 1046.1 917.4 1044.5 919.1 1042.5 919.3 1041.9 919.9 1041.4 920.5 1040.9 920.9 1033.7 927.7 1024.7 932 1017.6 932 1017.1 932 1016.6 932 1016.1 931.9L1016.6 934.3C1017 937.5 1023.1 940 1030.6 940 1038.1 940 1044.2 937.5 1044.6 934.3L1050.4 907C1050.4 907 1050.4 907 1050.4 907ZM1011 925.6C1008 922.4 1008.3 916.6 1011.4 910.5L1015.1 927.8C1013.5 927.4 1012.1 926.7 1011 925.6ZM1030.6 910C1020.1 910 1014.6 907 1014.6 906 1014.6 905 1020.1 902 1030.6 902 1041.1 902 1046.6 905 1046.6 906 1046.6 907 1041.1 910 1030.6 910Z" fill="#CC0000" fill-rule="nonzero" fill-opacity="1"/></g></g></g></g></svg>