<svg width="96" height="96" xmlns="http://www.w3.org/2000/svg" xmlns:xlink="http://www.w3.org/1999/xlink" xml:space="preserve" overflow="hidden"><defs><clipPath id="clip0"><rect x="1016" y="1380" width="96" height="96"/></clipPath></defs><g clip-path="url(#clip0)" transform="translate(-1016 -1380)"><path d="M1105 1419C1103.3 1419 1102 1420.3 1102 1422L1102 1436C1102 1431.6 1098.4 1428 1094 1428L1048.6 1428C1048.8 1427.4 1049 1426.7 1049 1426 1049 1422.7 1046.3 1420 1043 1420L1032 1420C1028.7 1420 1026 1422.7 1026 1426L1026 1407C1026 1405.3 1024.7 1404 1023 1404 1021.3 1404 1020 1405.3 1020 1407L1020 1452 1026 1452 1026 1442 1102 1442 1102 1452 1108 1452 1108 1422C1108 1420.3 1106.7 1419 1105 1419ZM1032 1424 1043 1424C1044.1 1424 1045 1424.9 1045 1426 1045 1427.1 1044.1 1428 1043 1428L1032 1428C1030.9 1428 1030 1427.1 1030 1426 1030 1424.9 1030.9 1424 1032 1424ZM1026 1436 1026 1432 1094 1432C1096.2 1432 1098 1433.8 1098 1436L1026 1436Z" fill="#CC0000" fill-rule="nonzero" fill-opacity="1"/></g></svg>