<svg width="96" height="96" xmlns="http://www.w3.org/2000/svg" xmlns:xlink="http://www.w3.org/1999/xlink" xml:space="preserve" overflow="hidden"><defs><clipPath id="clip0"><rect x="172" y="1380" width="96" height="96"/></clipPath></defs><g clip-path="url(#clip0)" transform="translate(-172 -1380)"><path d="M262 1420 260 1420C259.2 1420 258.5 1420.5 258.2 1421.2L255 1436 220 1436 185 1436 181.8 1421.2C181.5 1420.5 180.8 1420 180 1420L178 1420C176.9 1420 176 1420.9 176 1422L176 1440C176 1442.2 177.8 1444 180 1444L182 1444 182 1448 188 1448 188 1444 220 1444 252 1444 252 1448 258 1448 258 1444 260 1444C262.2 1444 264 1442.2 264 1440L264 1422C264 1420.9 263.1 1420 262 1420Z" fill="#CC0000" fill-rule="nonzero" fill-opacity="1"/><path d="M185.5 1419.7 185.7 1420.4 188.2 1432 251.7 1432 254.2 1420.4 254.4 1419.7C255.3 1417.5 257.5 1416 259.9 1416L259.9 1413C259.9 1410.8 258.1 1409 255.9 1409L184 1409C181.8 1409 180 1410.8 180 1413L180 1416C182.4 1416 184.6 1417.4 185.5 1419.7Z" fill="#CC0000" fill-rule="nonzero" fill-opacity="1"/></g></svg>