<svg width="96" height="98" xmlns="http://www.w3.org/2000/svg" xmlns:xlink="http://www.w3.org/1999/xlink" xml:space="preserve" overflow="hidden"><defs><clipPath id="clip0"><rect x="184" y="850" width="96" height="98"/></clipPath><clipPath id="clip1"><rect x="184" y="851" width="96" height="96"/></clipPath><clipPath id="clip2"><rect x="184" y="851" width="96" height="96"/></clipPath><clipPath id="clip3"><rect x="184" y="851" width="96" height="96"/></clipPath></defs><g clip-path="url(#clip0)" transform="translate(-184 -850)"><g clip-path="url(#clip1)"><g clip-path="url(#clip2)"><g clip-path="url(#clip3)"><path d="M260 883 260 891 252 891 252 883 260 883ZM204 919 212 919 212 927 204 927 204 919ZM224 883 224 891 216 891 216 883 224 883ZM236 883 236 891 228 891 228 883 236 883ZM248 903 240 903 240 895 248 895 248 903ZM252 903 252 895 260 895 260 903 252 903ZM252 915 252 907 260 907 260 915 252 915ZM228 919 236 919 236 927 228 927 228 919ZM224 919 224 927 216 927 216 919 224 919ZM216 907 224 907 224 915 216 915 216 907ZM212 907 212 915 204 915 204 907 212 907ZM212 895 212 903 204 903 204 895 212 895ZM224 903 216 903 216 895 224 895 224 903ZM228 903 228 895 236 895 236 903 228 903ZM236 915 228 915 228 907 236 907 236 915ZM240 915 240 907 248 907 248 915 240 915ZM248 883 248 891 240 891 240 883 248 883ZM198 877 198 933 266 933 266 877 198 877Z" fill="#CC0000" fill-rule="nonzero" fill-opacity="1"/><path d="M198 865 266 865 266 873 198 873Z" fill="#CC0000" fill-rule="nonzero" fill-opacity="1"/></g></g></g></g></svg>