<svg width="43" height="42" xmlns="http://www.w3.org/2000/svg" xmlns:xlink="http://www.w3.org/1999/xlink" xml:space="preserve" overflow="hidden"><defs><clipPath id="clip0"><rect x="793" y="2144" width="43" height="42"/></clipPath><clipPath id="clip1"><rect x="794" y="2145" width="41" height="41"/></clipPath><clipPath id="clip2"><rect x="794" y="2145" width="41" height="41"/></clipPath><clipPath id="clip3"><rect x="794" y="2145" width="41" height="41"/></clipPath></defs><g clip-path="url(#clip0)" transform="translate(-793 -2144)"><g clip-path="url(#clip1)"><g clip-path="url(#clip2)"><g clip-path="url(#clip3)"><path d="M831.583 2165.07C831.583 2163.66 830.43 2162.51 829.021 2162.51L820.906 2162.51C820.223 2162.51 819.668 2161.96 819.625 2161.27 819.668 2160.5 820.906 2158.97 820.906 2153.11 820.906 2151.71 819.753 2150.55 818.344 2150.55 816.934 2150.55 815.781 2151.71 815.781 2153.11 815.781 2159.61 808.222 2163.28 808.094 2163.36L808.094 2177.03C811.126 2177.03 811.34 2180.45 817.062 2180.45 818.984 2180.45 824.75 2180.45 824.75 2180.45 826.159 2180.45 827.312 2179.29 827.312 2177.89 827.312 2177.2 827.056 2176.6 826.629 2176.18 826.715 2176.18 826.8 2176.18 826.885 2176.18 828.295 2176.18 829.448 2175.02 829.448 2173.61 829.448 2172.93 829.192 2172.29 828.722 2171.82 829.875 2171.56 830.729 2170.54 830.729 2169.34 830.729 2168.62 830.43 2167.93 829.918 2167.46 830.9 2167.12 831.583 2166.18 831.583 2165.07Z" fill="#C00000" fill-rule="nonzero" fill-opacity="1"/><path d="M803.823 2161.23 797.417 2161.23 797.417 2179.17 803.823 2179.17C804.763 2179.17 805.531 2178.4 805.531 2177.46L805.531 2162.94C805.531 2162 804.763 2161.23 803.823 2161.23Z" fill="#C00000" fill-rule="nonzero" fill-opacity="1"/></g></g></g></g></svg>