<svg width="50" height="51" xmlns="http://www.w3.org/2000/svg" xmlns:xlink="http://www.w3.org/1999/xlink" xml:space="preserve" overflow="hidden"><defs><clipPath id="clip0"><rect x="1100" y="2141" width="50" height="51"/></clipPath><clipPath id="clip1"><rect x="1100" y="2142" width="50" height="50"/></clipPath><clipPath id="clip2"><rect x="1100" y="2142" width="50" height="50"/></clipPath><clipPath id="clip3"><rect x="1100" y="2142" width="50" height="50"/></clipPath></defs><g clip-path="url(#clip0)" transform="translate(-1100 -2141)"><g clip-path="url(#clip1)"><g clip-path="url(#clip2)"><g clip-path="url(#clip3)"><path d="M1144.79 2179.5C1144.79 2180.18 1144.01 2180.8 1142.71 2181.27L1142.71 2179.4C1143.44 2179.19 1144.17 2178.88 1144.79 2178.56L1144.79 2179.5ZM1140.62 2176.06 1140.62 2174.19C1141.35 2173.98 1142.08 2173.67 1142.71 2173.35L1142.71 2174.29C1142.71 2174.97 1141.93 2175.59 1140.62 2176.06ZM1140.62 2181.9C1140 2182.05 1139.27 2182.16 1138.54 2182.26L1138.54 2180.23C1139.22 2180.12 1139.95 2180.02 1140.62 2179.92L1140.62 2181.9ZM1136.46 2175.02C1137.14 2174.92 1137.86 2174.81 1138.54 2174.71L1138.54 2176.69C1137.92 2176.84 1137.19 2176.95 1136.46 2177.05L1136.46 2175.02ZM1136.46 2182.52C1135.78 2182.57 1135.1 2182.62 1134.38 2182.62L1134.38 2180.54C1135 2180.54 1135.73 2180.49 1136.46 2180.44L1136.46 2182.52ZM1132.29 2177.42 1132.29 2175.33C1132.92 2175.33 1133.65 2175.28 1134.38 2175.23L1134.38 2177.31C1133.7 2177.36 1133.02 2177.36 1132.29 2177.42ZM1132.29 2182.62C1131.56 2182.62 1130.89 2182.57 1130.21 2182.52L1130.21 2180.54C1130.57 2180.54 1130.89 2180.54 1131.25 2180.54 1131.56 2180.54 1131.93 2180.54 1132.29 2180.54L1132.29 2182.62ZM1128.12 2175.23C1128.8 2175.28 1129.48 2175.33 1130.21 2175.33L1130.21 2177.42C1129.48 2177.42 1128.8 2177.36 1128.12 2177.31L1128.12 2175.23ZM1128.12 2182.26C1127.4 2182.16 1126.67 2182.05 1126.04 2181.9L1126.04 2180.23C1126.72 2180.33 1127.4 2180.39 1128.12 2180.44L1128.12 2182.26ZM1123.96 2176.69 1123.96 2174.66C1124.64 2174.76 1125.31 2174.92 1126.04 2174.97L1126.04 2177.05C1125.31 2176.95 1124.58 2176.84 1123.96 2176.69ZM1123.96 2181.27C1122.66 2180.75 1121.88 2180.12 1121.88 2179.5L1121.88 2179.4C1121.88 2179.4 1121.88 2179.4 1121.93 2179.4 1122.08 2179.45 1122.19 2179.5 1122.34 2179.5 1122.86 2179.66 1123.39 2179.76 1123.96 2179.86L1123.96 2181.27ZM1115.62 2174.19C1115.99 2174.19 1116.3 2174.24 1116.67 2174.24L1116.67 2174.29C1116.67 2175.02 1116.82 2175.75 1117.19 2176.32 1116.67 2176.32 1116.15 2176.27 1115.62 2176.22L1115.62 2174.19ZM1113.54 2167.94C1114.22 2168.04 1114.9 2168.2 1115.62 2168.25L1115.62 2170.33C1114.9 2170.23 1114.17 2170.12 1113.54 2169.97L1113.54 2167.94ZM1113.54 2176.01C1112.81 2175.91 1112.08 2175.8 1111.46 2175.65L1111.46 2173.61C1112.14 2173.72 1112.81 2173.88 1113.54 2173.93L1113.54 2176.01ZM1109.38 2167.52 1109.38 2166.58C1110 2166.9 1110.68 2167.16 1111.46 2167.36L1111.46 2169.29C1110.16 2168.82 1109.38 2168.2 1109.38 2167.52ZM1109.38 2175.02C1108.07 2174.5 1107.29 2173.88 1107.29 2173.25L1107.29 2172.31C1107.92 2172.62 1108.59 2172.89 1109.38 2173.09L1109.38 2175.02ZM1107.29 2158.77C1107.92 2159.08 1108.59 2159.34 1109.38 2159.55L1109.38 2161.48C1108.07 2160.96 1107.29 2160.33 1107.29 2159.71L1107.29 2158.77ZM1113.54 2160.44 1113.54 2162.52C1112.81 2162.42 1112.08 2162.31 1111.46 2162.16L1111.46 2160.12C1112.14 2160.23 1112.81 2160.33 1113.54 2160.44ZM1118.75 2151.38C1125.1 2151.38 1130.21 2152.78 1130.21 2154.5 1130.21 2156.22 1125.1 2157.62 1118.75 2157.62 1112.4 2157.62 1107.29 2156.22 1107.29 2154.5 1107.29 2152.78 1112.4 2151.38 1118.75 2151.38ZM1121.88 2176.06C1120.57 2175.54 1119.79 2174.92 1119.79 2174.29L1119.79 2173.35C1120.42 2173.67 1121.09 2173.93 1121.88 2174.14L1121.88 2176.06ZM1128.12 2161.48 1128.12 2159.6C1128.85 2159.4 1129.58 2159.08 1130.21 2158.77L1130.21 2159.71C1130.21 2160.39 1129.43 2161.01 1128.12 2161.48ZM1123.96 2162.47 1123.96 2160.44C1124.64 2160.33 1125.36 2160.23 1126.04 2160.12L1126.04 2162.1C1125.42 2162.26 1124.69 2162.36 1123.96 2162.47ZM1119.79 2162.83 1119.79 2160.75C1120.42 2160.75 1121.15 2160.7 1121.88 2160.65L1121.88 2162.73C1121.2 2162.78 1120.52 2162.78 1119.79 2162.83ZM1115.62 2162.73 1115.62 2160.65C1116.3 2160.7 1116.98 2160.75 1117.71 2160.75L1117.71 2162.83C1116.98 2162.78 1116.3 2162.78 1115.62 2162.73ZM1142.71 2169.08C1142.71 2170.8 1137.6 2172.21 1131.25 2172.21 1124.9 2172.21 1119.79 2170.8 1119.79 2169.08 1119.79 2167.36 1124.9 2165.96 1131.25 2165.96 1137.6 2165.96 1142.71 2167.36 1142.71 2169.08ZM1145.83 2170.65 1145.83 2169.08C1145.83 2166.64 1143.91 2164.86 1140.16 2163.88 1138.75 2163.51 1137.14 2163.2 1135.31 2163.04 1135.36 2162.83 1135.36 2162.57 1135.36 2162.31 1135.36 2160.85 1134.69 2159.6 1133.28 2158.67L1133.28 2154.5C1133.28 2152.05 1131.35 2150.28 1127.6 2149.29 1125.16 2148.61 1122.03 2148.25 1118.7 2148.25 1114.32 2148.25 1104.11 2148.88 1104.11 2154.5L1104.11 2159.71C1104.11 2161.17 1104.79 2162.42 1106.2 2163.35L1106.2 2164.34C1104.95 2165.23 1104.11 2166.43 1104.11 2168.04L1104.11 2173.25C1104.11 2175.7 1106.04 2177.47 1109.79 2178.46 1112.24 2179.14 1115.36 2179.5 1118.7 2179.5 1118.7 2181.95 1120.62 2183.72 1124.38 2184.71 1126.82 2185.39 1129.95 2185.75 1133.28 2185.75 1137.66 2185.75 1147.86 2185.12 1147.86 2179.5L1147.86 2174.29C1147.92 2172.83 1147.24 2171.58 1145.83 2170.65Z" fill="#C00000" fill-rule="nonzero" fill-opacity="1"/></g></g></g></g></svg>