<svg width="54" height="55" xmlns="http://www.w3.org/2000/svg" xmlns:xlink="http://www.w3.org/1999/xlink" xml:space="preserve" overflow="hidden"><defs><clipPath id="clip0"><rect x="896" y="2513" width="54" height="55"/></clipPath><clipPath id="clip1"><rect x="897" y="2514" width="53" height="54"/></clipPath><clipPath id="clip2"><rect x="897" y="2514" width="53" height="54"/></clipPath><clipPath id="clip3"><rect x="897" y="2514" width="53" height="54"/></clipPath></defs><g clip-path="url(#clip0)" transform="translate(-896 -2513)"><g clip-path="url(#clip1)"><g clip-path="url(#clip2)"><g clip-path="url(#clip3)"><path d="M26.5 15.1823C22.5471 15.1823 19.5382 15.8503 17.6667 16.6343 17.6667 21.5128 21.6215 25.4676 26.5 25.4676 31.3785 25.4676 35.3333 21.5128 35.3333 16.6343 33.4618 15.8503 30.4529 15.1823 26.5 15.1823Z" fill="#CC0000" fill-rule="nonzero" fill-opacity="1" transform="matrix(1 0 0 1.01887 897 2514)"/><path d="M37.4865 13.9732C36.8109 13.5444 36.0885 13.1944 35.3333 12.9298 35.2078 9.81941 33.4544 7.00472 30.7179 5.52083L29.8125 10.3184C29.7615 10.5818 29.5287 10.7705 29.2604 10.7656L29.1555 10.7656C28.855 10.7141 28.6531 10.4287 28.7046 10.1282 28.7057 10.1217 28.707 10.1152 28.7083 10.1086L29.7573 4.58781C29.5816 3.84434 28.9202 3.31749 28.1562 3.3125L24.8438 3.3125C24.0724 3.31359 23.4039 3.84699 23.2317 4.59885L24.2806 10.1197C24.338 10.4184 24.143 10.7072 23.8445 10.7656L23.7396 10.7656C23.4713 10.7705 23.2385 10.5818 23.1875 10.3184L22.2821 5.52083C19.5456 7.00472 17.7922 9.81941 17.6667 12.9298 16.9058 13.1932 16.1778 13.5433 15.497 13.9732 14.0726 14.7627 13.2334 15.7013 13.2334 16.7336 13.2334 17.9482 14.5474 19.0579 16.5128 19.9136 16.5401 19.9273 16.5733 19.9163 16.5869 19.889 16.5934 19.8761 16.5945 19.8611 16.5901 19.8474 16.2714 18.9384 16.0854 17.9883 16.038 17.0262 16.041 16.5231 16.0835 16.0211 16.165 15.5246 18.4506 14.3266 22.2379 13.5426 26.4669 13.5426 30.6958 13.5426 34.4831 14.3266 36.7687 15.5246 36.8503 16.0211 36.8927 16.5231 36.8957 17.0262 36.8483 17.9883 36.6624 18.9384 36.3436 19.8474 36.3343 19.8764 36.3503 19.9075 36.3793 19.9168 36.3931 19.9213 36.408 19.9201 36.4209 19.9136 38.436 19.0414 39.75 17.9317 39.75 16.7171 39.75 15.7013 38.9108 14.7627 37.4865 13.9732Z" fill="#CC0000" fill-rule="nonzero" fill-opacity="1" transform="matrix(1 0 0 1.01887 897 2514)"/><path d="M22.0833 30.6572C20.8411 30.1603 19.875 29.4702 19.4885 28.6366L19.2125 28.7083C16.1249 29.6093 13.2126 31.0281 10.6 32.9042 9.51074 33.7572 8.86215 35.0543 8.83333 36.4375L8.83333 45.2708 22.0833 45.2708ZM15.4583 42.5104 10.4896 42.5104 10.4896 40.8542 15.4583 40.8542Z" fill="#CC0000" fill-rule="nonzero" fill-opacity="1" transform="matrix(1 0 0 1.01887 897 2514)"/><path d="M23.1875 45.2708 29.8125 45.2708 29.8125 31.0216C27.6444 31.6178 25.3556 31.6178 23.1875 31.0216Z" fill="#CC0000" fill-rule="nonzero" fill-opacity="1" transform="matrix(1 0 0 1.01887 897 2514)"/><path d="M42.4 32.9042C39.9708 30.9167 36.8792 29.5917 33.7875 28.7083L33.5115 28.631C33.1416 29.4647 32.1644 30.1603 30.9167 30.6572L30.9167 45.2708 44.1667 45.2708 44.1667 36.4375C44.1378 35.0543 43.4893 33.7572 42.4 32.9042ZM37.4313 36.0124C37.4313 37.8398 35.3057 38.4305 35.3057 38.4305 35.3057 38.4305 33.1802 37.8398 33.1802 36.0124 33.1802 35.2781 33.401 35.2781 33.401 34.6929 33.3689 34.4533 33.2736 34.2266 33.125 34.0359L33.8482 33.3072C34.2676 33.6832 34.9029 33.6832 35.3223 33.3072 35.5242 33.488 35.7855 33.5882 36.0566 33.5887 36.3302 33.588 36.5938 33.4857 36.7964 33.3017L37.5417 34.0359C37.3882 34.2255 37.2873 34.452 37.2491 34.6929 37.238 35.2781 37.4589 35.2781 37.4589 36.0124ZM42.5104 42.5104 37.5417 42.5104 37.5417 40.8542 42.5104 40.8542Z" fill="#CC0000" fill-rule="nonzero" fill-opacity="1" transform="matrix(1 0 0 1.01887 897 2514)"/><path d="M32.5729 27.8802C32.5729 28.9457 29.8567 30.3646 26.5 30.3646 23.1433 30.3646 20.4271 28.9457 20.4271 27.8802L20.4271 24.9652C20.4404 24.9378 20.4734 24.9263 20.5008 24.9396 20.512 24.945 20.521 24.9541 20.5265 24.9652 21.0454 25.9479 23.5243 27.0521 26.5 27.0521 29.4757 27.0521 31.9546 25.9479 32.4735 24.9376 32.4868 24.9102 32.5199 24.8987 32.5473 24.912 32.5585 24.9174 32.5675 24.9264 32.5729 24.9376Z" fill="#CC0000" fill-rule="nonzero" fill-opacity="1" transform="matrix(1 0 0 1.01887 897 2514)"/></g></g></g></g></svg>